<?xml version="1.0" encoding="UTF-8"?>
<svg width="171px" height="23px" viewBox="0 0 171 23" version="1.1" xmlns="http://www.w3.org/2000/svg" xmlns:xlink="http://www.w3.org/1999/xlink">
    <title>samokat_tech_logo</title>
    <defs>
        <polygon id="path-1" points="0 0 170.018457 0 170.018457 22.671 0 22.671"></polygon>
    </defs>
    <g id="Page-1" stroke="none" stroke-width="1" fill="none" fill-rule="evenodd">
        <g id="samokat_tech_logo" transform="translate(0.000000, -0.000000)">
            <mask id="mask-2" fill="white">
                <use xlink:href="#path-1"></use>
            </mask>
            <g id="Clip-2"></g>
            <path d="M168.446,7.215 C167.56,6.439 166.47,5.96 165.32,5.84 C164.169,5.719 163.01,5.963 161.994,6.54 C161.255,7.009 160.643,7.667 160.214,8.451 L160.214,0 L157.747,0 L157.747,22.402 L160.214,22.402 L160.214,13.361 C160.214,11.781 160.456,10.488 161.203,9.498 C161.541,9.018 161.984,8.631 162.496,8.369 C163.007,8.107 163.572,7.977 164.142,7.991 C165.311,7.991 166.171,8.342 166.723,9.045 C167.297,9.824 167.59,10.788 167.551,11.77 L167.551,22.402 L170.017,22.402 L170.017,11.057 C170.034,10.337 169.902,9.621 169.631,8.958 C169.36,8.295 168.956,7.701 168.446,7.215 Z M149.35,8.11 C150.288,8.079 151.21,8.365 151.979,8.925 C152.581,9.385 153.007,10.054 153.18,10.811 L155.452,10.811 C155.277,9.231 154.675,8.024 153.645,7.19 C152.409,6.234 150.898,5.745 149.361,5.803 C148.128,5.803 146.917,6.147 145.854,6.8 C144.726,7.496 143.805,8.505 143.195,9.715 C142.495,11.108 142.147,12.664 142.186,14.236 C142.145,15.811 142.456,17.374 143.094,18.802 C143.635,20.004 144.505,21.013 145.594,21.7 C146.698,22.365 147.955,22.704 149.229,22.68 C150.282,22.687 151.323,22.456 152.282,22.005 C153.197,21.558 153.973,20.852 154.523,19.968 C154.978,19.152 155.292,18.259 155.452,17.33 L153.18,17.33 C153.01,18.136 152.592,18.861 151.989,19.396 C151.097,20.125 149.972,20.469 148.844,20.356 C147.716,20.243 146.673,19.682 145.932,18.788 C145.088,17.727 144.666,16.214 144.666,14.25 C144.666,12.285 145.114,10.778 146.012,9.729 C146.418,9.216 146.931,8.803 147.51,8.523 C148.09,8.243 148.722,8.102 149.361,8.11 L149.35,8.11 Z M119.486,18.612 L119.486,8.384 L123.35,8.384 L123.35,6.08 L119.496,6.08 L119.496,2.353 L117.029,2.353 L117.029,6.08 L114.549,6.08 L114.549,8.384 L117.029,8.384 L117.029,18.51 C117.029,19.958 117.366,21.011 118.018,21.672 C118.671,22.332 119.644,22.669 120.923,22.669 C121.966,22.688 123.006,22.54 124.006,22.23 L124.006,19.944 C123.089,20.23 122.138,20.379 121.182,20.386 C120.058,20.375 119.496,19.785 119.496,18.612 L119.486,18.612 Z M100.071,18.612 L100.071,8.384 L103.931,8.384 L103.931,6.08 L100.081,6.08 L100.081,2.353 L97.614,2.353 L97.614,6.08 L95.134,6.08 L95.134,8.384 L97.614,8.384 L97.614,18.51 C97.614,19.958 97.951,21.011 98.604,21.672 C99.256,22.332 100.232,22.669 101.508,22.669 C102.551,22.689 103.591,22.541 104.59,22.23 L104.59,19.944 C103.674,20.23 102.724,20.379 101.767,20.386 C100.643,20.375 100.081,19.785 100.081,18.612 L100.071,18.612 Z M43.869,5.81 C43.019,5.795 42.184,6.039 41.466,6.512 C40.812,6.909 40.292,7.506 39.975,8.223 C39.812,7.507 39.408,6.876 38.837,6.445 C38.218,6.003 37.477,5.783 36.727,5.82 C35.925,5.802 35.133,6.019 34.442,6.445 C33.782,6.86 33.265,7.483 32.965,8.223 L32.965,6.08 L30.498,6.08 L30.498,22.402 L32.965,22.402 L32.965,11.127 C32.92,10.293 33.174,9.472 33.678,8.823 C33.911,8.545 34.202,8.324 34.527,8.178 C34.852,8.031 35.205,7.963 35.559,7.977 C36.168,7.951 36.766,8.155 37.242,8.553 C37.46,8.756 37.632,9.007 37.744,9.289 C37.855,9.57 37.905,9.875 37.888,10.179 L37.888,22.402 L40.358,22.402 L40.358,11.127 C40.314,10.293 40.568,9.472 41.072,8.823 C41.305,8.545 41.595,8.324 41.921,8.178 C42.246,8.031 42.599,7.963 42.953,7.977 C43.563,7.949 44.161,8.154 44.636,8.553 C44.856,8.755 45.029,9.006 45.142,9.287 C45.255,9.569 45.305,9.874 45.289,10.179 L45.289,22.402 L47.752,22.402 L47.752,10.246 C47.752,8.689 47.449,7.56 46.844,6.86 C46.248,6.157 45.252,5.81 43.869,5.81 Z M137.545,12.385 L128.397,12.385 C128.677,11.029 129.162,9.979 130.003,9.224 C130.856,8.474 131.941,8.076 133.055,8.103 C134.417,8.103 135.494,8.471 136.286,9.206 C136.681,9.549 136.998,9.979 137.217,10.464 C137.434,10.95 137.548,11.48 137.548,12.016 L137.545,12.385 Z M139.981,13.087 C139.981,10.808 139.308,9.023 138.164,7.738 C137.02,6.452 135.344,5.80592817 133.116,5.80592817 C131.792,5.8 130.491,6.17 129.354,6.877 C128.216,7.583 127.284,8.6 126.658,9.817 C125.984,11.096 125.766,12.557 125.766,14.204 C125.736,15.736 126.042,17.254 126.658,18.644 C127.21,19.88 128.103,20.917 129.222,21.622 C130.396,22.342 131.738,22.707 133.099,22.676 C134.851,22.676 136.279,22.236 137.383,21.355 C138.487,20.475 139.202,19.187 139.527,17.492 L139.561,17.323 L137.225,17.323 L137.192,17.492 C136.983,18.372 136.483,19.146 135.778,19.677 C134.968,20.186 134.03,20.431 133.086,20.379 C132.436,20.395 131.792,20.262 131.198,19.989 C130.604,19.716 130.074,19.311 129.646,18.802 C128.749,17.753 128.273,16.314 128.219,14.485 L139.978,14.485 L139.981,13.087 Z M108.946,22.402 L112.516,22.402 L112.516,18.679 L108.946,18.679 L108.946,22.402 Z M78.21,6.08 L75.45,6.08 L69.392,13.835 L69.392,0 L66.925,0 L66.925,22.402 L69.392,22.402 L69.392,17.527 L71.707,14.506 L77.042,22.402 L79.67,22.402 L73.205,12.567 L78.21,6.08 Z M60.813,18.749 C60.377,19.261 59.842,19.67 59.243,19.95 C58.645,20.23 57.996,20.375 57.34,20.375 C56.684,20.375 56.036,20.23 55.437,19.95 C54.839,19.67 54.303,19.261 53.867,18.749 C52.97,17.665 52.527,16.163 52.538,14.243 C52.549,12.323 52.992,10.821 53.867,9.736 C54.303,9.225 54.839,8.816 55.437,8.536 C56.036,8.256 56.684,8.111 57.34,8.111 C57.996,8.111 58.645,8.256 59.243,8.536 C59.842,8.816 60.377,9.225 60.813,9.736 C61.697,10.823 62.14,12.325 62.1430067,14.243 C62.145,16.161 61.702,17.663 60.813,18.749 Z M60.975,6.825 C60.146,6.308 59.225,5.974 58.268,5.843 C57.311,5.711 56.339,5.785 55.41,6.059 C54.482,6.334 53.616,6.804 52.868,7.44 C52.119,8.075 51.503,8.864 51.057,9.758 C50.374,11.145 50.034,12.687 50.068,14.246 C50.034,15.805 50.374,17.348 51.057,18.735 C51.652,19.939 52.552,20.949 53.66,21.653 C54.768,22.358 56.041,22.731 57.339,22.731 C58.636,22.731 59.909,22.358 61.017,21.653 C62.125,20.949 63.025,19.939 63.62,18.735 C64.305,17.349 64.645,15.806 64.61,14.246 C64.644,12.687 64.304,11.144 63.62,9.758 C63.016,8.543 62.1,7.527 60.975,6.825 Z M90.614,16.031 C90.635,16.628 90.534,17.223 90.317,17.777 C90.101,18.33 89.774,18.829 89.359,19.241 C88.468,20.096 87.29,20.547 86.081,20.495 C83.918,20.495 82.837,19.648 82.837,17.955 C82.837,16.961 83.143,16.245 83.762,15.802 C84.381,15.36 85.323,15.142 86.6,15.142 L90.638,15.142 L90.614,16.031 Z M91.378,7.25 C90.24,6.287 88.67,5.807 86.667,5.80998602 C84.933,5.80998602 83.503,6.259 82.365,7.162 C81.815,7.586 81.363,8.134 81.043,8.766 C80.724,9.398 80.546,10.097 80.521,10.811 L82.793,10.811 C82.837,10.399 82.97,10.002 83.181,9.65 C83.391,9.298 83.675,9 84.011,8.778 C84.817,8.296 85.738,8.064 86.667,8.11 C87.878,8.11 88.84,8.384 89.554,8.925 C90.268,9.466 90.624,10.33 90.624,11.465 L90.624,12.989 L86.586,12.989 C84.706,12.989 83.197,13.407 82.059,14.243 C80.922,15.079 80.354,16.309 80.3569882,17.934 C80.3569882,19.494 80.832,20.674 81.783,21.475 C82.813,22.303 84.089,22.728 85.388,22.676 C86.484,22.72 87.575,22.489 88.568,22.002 C89.431,21.518 90.175,20.833 90.742,20 L90.742,22.402 L93.0780053,22.402 L93.0780053,11.433 C93.08,9.614 92.514,8.219 91.378,7.25 Z M24.497,16.031 C24.518,16.63 24.416,17.227 24.197,17.782 C23.979,18.337 23.65,18.837 23.232,19.248 C22.342,20.103 21.163,20.554 19.954,20.502 C17.791,20.502 16.71,19.655 16.71,17.963 C16.71,16.968 17.016,16.252 17.635,15.809 C18.254,15.367 19.197,15.149 20.472,15.149 L24.511,15.149 L24.497,16.031 Z M25.261,7.25 C24.124,6.287 22.553,5.807 20.55,5.80998602 C18.816,5.80998602 17.386,6.259 16.249,7.162 C15.697,7.585 15.245,8.134 14.925,8.766 C14.606,9.398 14.428,10.097 14.404,10.811 L16.666,10.811 C16.71,10.399 16.843,10.002 17.054,9.65 C17.265,9.298 17.548,9 17.884,8.778 C18.686,8.294 19.604,8.059 20.53,8.1 C21.741,8.1 22.704,8.374 23.417,8.915 C24.13,9.456 24.487,10.319 24.487,11.454 L24.487,12.989 L20.449,12.989 C18.566,12.989 17.058,13.407 15.922,14.243 C14.787,15.079 14.227,16.309 14.243,17.934 C14.243,19.494 14.719,20.674 15.67,21.475 C16.7,22.303 17.975,22.728 19.274,22.676 C20.371,22.72 21.461,22.489 22.455,22.002 C23.317,21.518 24.061,20.833 24.629,20 L24.629,22.402 L26.964,22.402 L26.964,11.433 C26.964,9.614 26.397,8.219 25.261,7.25 Z M7.213,12.989 C5.676,12.673 4.554,12.3 3.847,11.872 C3.528,11.715 3.258,11.466 3.068,11.155 C2.878,10.845 2.776,10.484 2.774,10.116 C2.772,9.808 2.846,9.505 2.988,9.235 C3.129,8.965 3.335,8.738 3.585,8.574 C4.279,8.133 5.086,7.924 5.897,7.977 C8.037,7.977 9.159,8.823 9.262,10.516 L9.262,10.811 L11.43,10.811 L11.43,10.506 C11.447,9.859 11.328,9.215 11.082,8.621 C10.835,8.027 10.467,7.497 10.003,7.067 C9.06,6.229 7.692,5.81 5.897,5.81 C4.505,5.755 3.136,6.184 2.003,7.028 C1.51,7.39 1.11,7.872 0.838,8.434 C0.566,8.995 0.431,9.617 0.445,10.246 C0.433,10.786 0.537,11.322 0.75,11.815 C0.963,12.307 1.28,12.743 1.677,13.091 C2.643,13.905 3.796,14.442 5.022,14.65 C6.707,14.988 7.891,15.382 8.576,15.834 C8.9,16.043 9.164,16.338 9.342,16.689 C9.519,17.041 9.603,17.436 9.585,17.833 C9.589,18.212 9.495,18.586 9.313,18.914 C9.13,19.242 8.866,19.513 8.549,19.698 C7.805,20.165 6.949,20.4 6.082,20.375 C5.096,20.43 4.12,20.144 3.305,19.561 C2.973,19.3 2.702,18.963 2.513,18.575 C2.325,18.188 2.224,17.761 2.218,17.327 L-0.06,17.327 C-0.015,19.02 0.537,20.335 1.596,21.271 C2.655,22.208 4.148,22.676 6.075,22.676 C7.593,22.732 9.087,22.265 10.326,21.348 C10.881,20.931 11.329,20.377 11.629,19.735 C11.93,19.094 12.074,18.385 12.049,17.671 C12.049,15.25 10.437,13.689 7.213,12.989 L7.213,12.989 Z" id="Fill-1" fill="#F5F0B5" mask="url(#mask-2)"></path>
        </g>
    </g>
</svg>